<!DOCTYPE svg PUBLIC "-//W3C//DTD SVG 1.1//EN" "http://www.w3.org/Graphics/SVG/1.1/DTD/svg11.dtd">
<!-- Uploaded to: SVG Repo, www.svgrepo.com, Transformed by: SVG Repo Mixer Tools -->
<svg fill="#808080" width="800px" height="800px" viewBox="0 0 24 24" xmlns="http://www.w3.org/2000/svg" stroke="#808080" stroke-width="0.00024000000000000003">
<g id="SVGRepo_bgCarrier" stroke-width="0"/>
<g id="SVGRepo_tracerCarrier" stroke-linecap="round" stroke-linejoin="round"/>
<g id="SVGRepo_iconCarrier">
<path d="M10.034,18.069a7.982,7.982,0,0,0,3.939-1.035l3.332,3.332a2.164,2.164,0,0,0,3.061-3.061L17.031,13.97a8.026,8.026,0,1,0-7,4.1ZM5.768,5.768A6.033,6.033,0,1,1,4,10.035,5.988,5.988,0,0,1,5.768,5.768Zm-.7,4.267a1.015,1.015,0,0,1,1-1.018.985.985,0,0,1,1,.983v.035A2.968,2.968,0,0,0,10.035,13a1,1,0,0,1,0,2A4.972,4.972,0,0,1,5.069,10.035Z"/>
</g>
</svg>